<svg xmlns="http://www.w3.org/2000/svg" viewBox="0 0 455 361.67"><defs><style>.cls-1{fill:#fff;}</style></defs><g id="Calque_2" data-name="Calque 2"><g id="Calque_1-2" data-name="Calque 1"><path class="cls-1" d="M431.07,140H23.91L46.08,361.67H408.91ZM99.62,326.66h-.46a5.83,5.83,0,0,1-5.83-5.37l-11.67-140a5.85,5.85,0,1,1,11.67-.93l11.66,140a5.87,5.87,0,0,1-5.37,6.3Zm87-5.83a5.84,5.84,0,0,1-11.67,0v-140a5.83,5.83,0,0,1,11.66,0Zm93.33,0a5.84,5.84,0,0,1-11.67,0v-140a5.84,5.84,0,0,1,11.67,0Zm81.67.46a5.85,5.85,0,0,1-5.84,5.37h-.46a5.88,5.88,0,0,1-5.37-6.3l11.67-140A6,6,0,0,1,368,175a5.89,5.89,0,0,1,5.37,6.3Z"/><path class="cls-1" d="M210,0h35V105H210Z"/><path class="cls-1" d="M256.66,93.33v17.5a5.77,5.77,0,0,1-5.83,5.83H204.16a5.77,5.77,0,0,1-5.83-5.83V93.33H0v35H455v-35Z"/></g></g></svg>